<?xml version="1.0" encoding="UTF-8"?>
<svg width="512" height="512" viewBox="0 0 512 512" fill="none" xmlns="http://www.w3.org/2000/svg">
  <!-- 背景圆形 -->
  <circle cx="256" cy="256" r="248" fill="#1E293B" stroke="#0EA5E9" stroke-width="16"/>
  
  <!-- 声波动画效果 -->
  <g transform="translate(256, 256)">
    <!-- 中间的麦克风图标 -->
    <path d="M-40 -80 L-40 40 C-40 62 -22 80 0 80 C22 80 40 62 40 40 L40 -80 C40 -102 22 -120 0 -120 C-22 -120 -40 -102 -40 -80Z" fill="#0EA5E9"/>
    <path d="M-80 40 L-80 40 C-80 84 -44 120 0 120 C44 120 80 84 80 40" stroke="#0EA5E9" stroke-width="24" stroke-linecap="round"/>
    <path d="M0 120 L0 180" stroke="#0EA5E9" stroke-width="24" stroke-linecap="round"/>
    <path d="M-60 180 L60 180" stroke="#0EA5E9" stroke-width="24" stroke-linecap="round"/>
    
    <!-- 声波效果 -->
    <g transform="translate(0, -20)">
      <path d="M-120 0 Q-100 -40 -80 0 Q-60 40 -40 0 Q-20 -40 0 0 Q20 40 40 0 Q60 -40 80 0 Q100 40 120 0" 
            stroke="#0EA5E9" stroke-width="12" fill="none" opacity="0.6">
        <animate attributeName="d" 
                 dur="1.5s" 
                 repeatCount="indefinite"
                 values="
                   M-120 0 Q-100 -40 -80 0 Q-60 40 -40 0 Q-20 -40 0 0 Q20 40 40 0 Q60 -40 80 0 Q100 40 120 0;
                   M-120 0 Q-100 40 -80 0 Q-60 -40 -40 0 Q-20 40 0 0 Q20 -40 40 0 Q60 40 80 0 Q100 -40 120 0;
                   M-120 0 Q-100 -40 -80 0 Q-60 40 -40 0 Q-20 -40 0 0 Q20 40 40 0 Q60 -40 80 0 Q100 40 120 0"
        />
      </path>
    </g>
  </g>
</svg> 